<svg id="Layer_1" data-name="Layer 1" xmlns="http://www.w3.org/2000/svg" viewBox="0 0 1272 350"><defs><style>.cls-1{fill:red;}</style></defs><path d="M1150.48,317.48q-47.6,0-75.29-30-26.54-28.86-26.53-76.46,0-47.19,27.12-76.65t74.7-29.45q47.58,0,75.29,30,26.52,28.88,26.53,76.07,0,47.61-26.53,76.46-27.7,30-75.29,30m0-35.11q28.08,0,43.7-22.62,13.63-19.51,13.64-48.77,0-28.86-13.64-48.37Q1178.57,140,1150.48,140t-43.69,22.63q-13.66,19.51-13.66,48.37,0,29.27,13.66,48.77,15.6,22.62,43.69,22.62"/><path d="M561.58,291V131.4a21.07,21.07,0,0,1,21.07-21.07h0a21.06,21.06,0,0,1,21.06,21.07V140l.78.78q21.45-35.88,62.82-35.89,33.53,0,52.46,17.55t18.92,51.11V291A21.06,21.06,0,0,1,717.63,312h-2.34A21.06,21.06,0,0,1,694.22,291V185.24q0-45.26-39.4-45.26Q633,140,619.51,155.2T606.06,193V291A21.06,21.06,0,0,1,585,312h-2.34A21.06,21.06,0,0,1,561.58,291Z"/><path class="cls-1" d="M1232,84.35H1069c-11.22,0-20.33-9.75-20.33-21.77h0c0-12,9.11-21.77,20.33-21.77h163c11.22,0,20.33,9.75,20.33,21.77h0C1252.3,74.6,1243.19,84.35,1232,84.35Z"/><path d="M33.77,291V131.4a21.08,21.08,0,0,1,21.07-21.07h0A21.08,21.08,0,0,1,75.91,131.4v7h1.17q22.23-33.54,62-33.55,39.06,0,53.68,27.31a4.36,4.36,0,0,0,7.19.67q23.25-28,58.89-28,67.49,0,67.49,67.88V291A21.07,21.07,0,0,1,305.29,312H303A21.06,21.06,0,0,1,281.89,291V194.21q0-28.47-5.47-39Q269,140,245.21,140q-42.92,0-42.91,53.84V291A21.06,21.06,0,0,1,181.24,312h-2.35A21.06,21.06,0,0,1,157.83,291V182.5q0-21.84-8-32.18T122.33,140Q104,140,91.12,154T78.25,192.26V291A21.07,21.07,0,0,1,57.18,312H54.84A21.07,21.07,0,0,1,33.77,291Z"/><path d="M1023.7,54.55V291A21.07,21.07,0,0,1,1002.63,312h0A21.07,21.07,0,0,1,981.56,291v-6.24h-.77Q964,317.49,918.38,317.48q-46.05,0-71-31.21Q824,257.41,824,209.81q0-51.49,27.32-80,23.78-25,60.07-25,47.58,0,67.1,31.6h.78V54.55a21.07,21.07,0,0,1,21.07-21.07h2.33A21.07,21.07,0,0,1,1023.7,54.55ZM868.44,213.32q0,28.49,13.26,47.6,15.21,21.45,42.52,21.46,27.71,0,43.3-22.63,13.26-19.5,13.27-48.76,0-33.17-15-52.09T925,140q-28.89,0-44.08,23-12.51,19.5-12.49,50.32"/><path class="cls-1" d="M810.83,202.38a28,28,0,1,1-28-28,28,28,0,0,1,28,28"/><path class="cls-1" d="M443,317.48q-47.6,0-75.29-30Q341.15,258.58,341.15,211q0-47.19,27.12-76.65T443,104.88q47.59,0,75.29,30,26.52,28.88,26.53,76.07,0,47.61-26.53,76.46-27.7,30-75.29,30m0-35.11q28.09,0,43.7-22.62Q500.3,240.24,500.32,211q0-28.86-13.65-48.37Q471.05,140,443,140t-43.69,22.63Q385.62,182.13,385.63,211q0,29.27,13.65,48.77,15.6,22.62,43.69,22.62"/></svg>