<svg id="Layer_1" data-name="Layer 1" xmlns="http://www.w3.org/2000/svg" viewBox="0 0 500 500"><defs><style>.cls-1{fill:red;}.cls-2{fill:none;stroke:#000;stroke-linecap:round;stroke-linejoin:round;stroke-width:31.41px;}</style></defs><path class="cls-1" d="M377.61,93,44.05,252.15c-11,5.21-.53-12.56-6.11-24.34h0C32.37,216,36.77,202.25,47.77,197L326.68,64.72c11-5.21,24.44.12,30,11.9h0C362.28,88.4,388.61,87.77,377.61,93Z"/><path d="M164.25,448.37,90.25,292a22.83,22.83,0,0,1,10.87-30.41h0a22.83,22.83,0,0,1,30.41,10.87l3.26,6.88,1.15-.54q6.23-43.18,45.22-61.64,38.26-18.1,65.23,1.83a4.74,4.74,0,0,0,7.4-2.65q9.81-38.19,44.73-54.73,66.14-31.29,97.61,35.22L451,312.68a22.83,22.83,0,0,1-10.87,30.41l-7.79,32.63L362.51,238.5q-13.22-27.9-23.45-35.69-14.32-11.48-37.64-.44-42.06,19.9-17.08,72.66l45.05,95.18a22.83,22.83,0,0,1-10.87,30.41l-2.3,1.09a22.83,22.83,0,0,1-30.41-10.87l-50.3-106.28q-10.12-21.39-22.77-27.82T181,259.36q-18,8.5-24.07,28.24T162.06,331l69.13,141.29c5.39,11.4-18.49-11.47-29.89-6.07l-6.64-7A22.83,22.83,0,0,1,164.25,448.37Z"/><circle class="cls-2" cx="243.75" cy="253.09" r="208.22"/></svg>